<svg width="74" height="74" viewBox="0 0 74 74" fill="none" xmlns="http://www.w3.org/2000/svg">
<path d="M72.56 29C72.34 28.03 71.38 27.42 70.4 27.64C69.43 27.86 68.82 28.82 69.04 29.8C69.57 32.16 69.84 34.6 69.84 37.05C69.84 42.64 68.43 47.91 65.96 52.53C65.89 50.99 65.6 49.3 64.97 47.51C62.35 40.14 54.95 33.97 42.96 29.17C42.75 28.54 42.54 27.91 42.32 27.26C38.86 17.14 33.96 10.46 27.76 7.41C26.89 6.98 26.06 6.66001 25.27 6.42001C28.92 5.01001 32.89 4.23999 37.03 4.23999C45.17 4.23999 52.97 7.24 59.01 12.69C59.75 13.36 60.89 13.3 61.56 12.56C62.23 11.82 62.17 10.68 61.43 10.01C54.73 3.96001 46.06 0.630005 37.03 0.630005C16.94 0.630005 0.599976 16.97 0.599976 37.06C0.599976 57.15 16.94 73.49 37.03 73.49C57.12 73.49 73.46 57.15 73.46 37.06C73.45 34.33 73.15 31.62 72.56 29ZM52.7 65.86C48.25 63.78 46.12 58.91 45.62 57.63C46.3 57.18 46.97 56.7 47.62 56.19C49.27 59.9 51.37 62.5 54.99 64.48C54.25 64.97 53.49 65.43 52.7 65.86ZM49.33 67.46C45.42 65.92 41.64 61.77 40.52 60.46C41.92 59.82 43.3 59.09 44.65 58.26C45.28 59.84 47.33 64.2 51.47 66.5C50.77 66.85 50.06 67.17 49.33 67.46ZM27.68 68.51C32.29 67.57 37.92 65.91 38.24 65.81C38.28 65.8 38.32 65.78 38.36 65.76C38.92 66.26 39.5 66.72 40.12 67.16C38.94 67.64 35.76 68.91 33.57 69.69C31.55 69.47 29.58 69.07 27.68 68.51ZM21.97 66.2C21.82 65.83 21.68 65.46 21.54 65.08C23.39 64.94 25.62 64.69 28.05 64.26C30.24 63.87 32.76 63.29 35.38 62.45C36.01 63.31 36.69 64.12 37.42 64.87C35.64 65.38 29.48 67.12 25.45 67.77C24.26 67.3 23.09 66.78 21.97 66.2ZM20.41 65.34C20.32 65.29 20.23 65.23 20.13 65.18C20.2 65.18 20.27 65.17 20.34 65.17C20.37 65.22 20.39 65.28 20.41 65.34ZM6.35999 48.75C6.97999 46.28 8.23 42.18 10.5 37.47C10.72 37.02 10.95 36.56 11.19 36.08C11.58 36.58 11.96 37.1 12.32 37.65C11.9 38.55 8.48001 45.87 6.89001 50.04C6.70001 49.62 6.51999 49.18 6.35999 48.75ZM13.99 13.67C15.89 14.34 21.04 16.35 22.64 19C21.78 19.8 20.96 20.61 20.18 21.42C19.68 20.92 19.19 20.46 18.72 20.04C16.19 17.79 13.78 16.3 12.28 15.48C12.83 14.86 13.4 14.25 13.99 13.67ZM30.8 14.06C31.41 14.68 32 15.35 32.58 16.08C29.93 17.66 24.14 21.27 22.3 23.75C21.86 23.22 21.42 22.72 20.98 22.24C23.72 19.36 26.97 16.56 30.8 14.06ZM34.86 19.44C32.53 21.04 27.03 24.9 24.76 27.22C24.21 26.32 23.63 25.47 23.03 24.68C24.3 22.6 30.02 18.92 33.26 16.99C33.82 17.76 34.35 18.58 34.86 19.44ZM37.36 24.4C33.7 26.29 30.2 28.92 27.02 31.82C26.54 30.55 25.97 29.36 25.36 28.25C27.32 26.1 32.99 22.11 35.43 20.43C36.11 21.66 36.76 22.99 37.36 24.4ZM38.9 28.41C40.51 33.13 41.76 37.25 42.79 40.8C42 41.69 41.05 42.59 39.96 43.5C39.32 41.73 37.51 36.57 37.21 34.24C36.88 31.77 35.45 28.32 34.93 27.13C35.88 26.52 36.85 25.96 37.82 25.45C38.18 26.41 38.55 27.39 38.9 28.41ZM11.77 34.98C12.35 33.9 13 32.78 13.72 31.63C15.57 33.57 19.09 37.73 19.09 39.95H19.24C18.37 40.97 17.56 41.97 16.81 42.93C16.69 43.08 16.57 43.24 16.45 43.39C15.3 40.09 13.62 37.3 11.77 34.98ZM5.57001 28.8C6.22001 25.24 11.62 18.79 12.98 17.21C13.91 17.78 15.02 18.52 16.2 19.44C14.81 20.96 9.42003 27.01 8.03003 31.03C7.16003 30.25 6.31001 29.56 5.51001 28.96C5.54001 28.91 5.56001 28.86 5.57001 28.8ZM17.1 20.15C17.4 20.4 17.7 20.65 18 20.92C18.46 21.33 18.93 21.77 19.41 22.25C15.73 26.26 12.99 30.37 10.99 34.03C10.33 33.26 9.64997 32.55 8.96997 31.9C9.90997 28.17 15.79 21.58 17.1 20.15ZM26.12 32.66C25.2 33.53 24.3 34.41 23.44 35.3C22.47 31.88 18.67 27.31 17.63 26.1C18.43 25.09 19.29 24.09 20.2 23.09C22.42 25.48 24.67 28.66 26.12 32.66ZM20.09 38.96C19.31 35.95 15.47 31.8 14.35 30.64C15.13 29.45 15.98 28.24 16.91 27.01C18.17 28.49 22.03 33.25 22.49 36.25L22.54 36.24C21.68 37.15 20.87 38.06 20.09 38.96ZM26.52 33.85C26.89 35.06 27.19 36.35 27.39 37.7C27.4 37.78 27.42 37.87 27.43 37.95C26.03 39.23 19.85 44.92 17.57 47.73C17.39 46.69 17.16 45.68 16.88 44.72C19.6 41.19 22.87 37.34 26.52 33.85ZM17.82 49.35C17.83 49.34 17.84 49.32 17.84 49.31C18.53 47.85 24.57 42.13 27.63 39.31C27.96 41.45 28.34 43.56 28.78 45.63C27.14 46.7 20.43 51.07 18.29 52.22C18.11 51.24 17.96 50.28 17.82 49.35ZM29.93 45.55L29.92 45.54C29.33 42.76 28.88 40.02 28.51 37.54C28.27 35.93 27.9 34.41 27.43 32.99C28.29 32.2 29.17 31.43 30.06 30.69C30.51 31.59 31.47 33.82 31.69 36.79C31.97 40.65 33.66 46.95 33.91 47.85C32.94 48.48 31.93 49.09 30.92 49.7C30.58 48.46 30.28 47.21 30.01 45.97C30.04 45.83 30.01 45.68 29.93 45.55ZM34.92 47.2C34.49 45.6 33.07 40.09 32.83 36.71C32.58 33.26 31.41 30.77 30.97 29.95C31.94 29.18 32.93 28.45 33.94 27.77C34.49 29.06 35.77 32.21 36.06 34.4C36.42 37.06 38.53 42.97 39.01 44.27C37.76 45.25 36.38 46.23 34.92 47.2ZM23.5 18.22C21.73 15.56 17.18 13.62 14.92 12.79C15.42 12.34 15.93 11.9 16.45 11.48C17.92 11.82 24.19 13.41 26.12 16.02C25.21 16.74 24.34 17.47 23.5 18.22ZM11.98 16.62C11.2 17.53 9.56001 19.49 8.01001 21.69C9.01001 19.8 10.2 18.02 11.54 16.37C11.68 16.45 11.83 16.53 11.98 16.62ZM10.41 35.11C10.07 35.76 9.75001 36.4 9.45001 37.01C9.28001 37.36 9.11997 37.7 8.96997 38.04C7.71997 36.74 5.45999 35.23 4.29999 34.49C4.41999 32.95 4.64997 31.44 4.96997 29.97C6.66997 31.26 8.59997 32.96 10.41 35.11ZM8.45001 39.18C7.97001 40.28 7.54999 41.32 7.17999 42.31C6.41999 41.86 5.19997 41.2 4.40997 40.78C4.26997 39.55 4.20001 38.3 4.20001 37.04C4.20001 36.62 4.20998 36.21 4.22998 35.8C5.67998 36.76 7.65001 38.17 8.45001 39.18ZM6.78998 43.4C6.33998 44.67 5.98 45.82 5.69 46.83C5.22 45.32 4.84998 43.77 4.59998 42.18C5.45998 42.64 6.32998 43.12 6.78998 43.4ZM7.56 51.51C8.67 48.27 11.96 41.11 13.04 38.8C13.51 39.58 13.95 40.4 14.35 41.26C13.47 42.6 9.57 48.54 7.75 51.9C7.69 51.76 7.63 51.63 7.56 51.51ZM8.40002 53.1C9.77002 50.39 13.46 44.68 14.89 42.5C15.15 43.14 15.39 43.79 15.6 44.47C12.61 48.4 10.3 51.93 8.96997 54.08C8.77997 53.76 8.59002 53.43 8.40002 53.1ZM10.14 54.38C10.37 55.13 10.7 56.14 11.1 57.14C10.6 56.49 10.12 55.83 9.66998 55.15C9.79998 54.91 9.96001 54.66 10.14 54.38ZM13.19 58.85C12.12 57.2 11.18 53.95 10.95 53.11C11.65 52.03 12.5 50.75 13.49 49.34C13.76 51.45 14.42 56.14 15.17 57.94C14.39 58.3 13.73 58.6 13.19 58.85ZM16.19 57.46C15.57 55.96 14.84 51.15 14.5 48.23C14.49 48.15 14.47 48.08 14.43 48.02C14.93 47.33 15.45 46.61 16.01 45.87C16.23 46.73 16.41 47.62 16.55 48.55C16.92 51.04 17.37 53.8 17.97 56.62C17.34 56.91 16.75 57.2 16.19 57.46ZM18.49 53.39C20.26 52.52 26.81 48.27 29.03 46.82C29.3 48 29.59 49.17 29.91 50.3C26.12 52.51 22.23 54.52 19.02 56.09C18.83 55.19 18.65 54.28 18.49 53.39ZM34.7 61.46C33.29 61.9 31.89 62.27 30.53 62.58C28.98 60.39 27.68 54.54 27.37 53.08C28.33 52.55 29.29 52.01 30.25 51.45C31.36 55.17 32.79 58.58 34.7 61.46ZM25.18 63.54C24.35 62.06 23.55 57.32 23.26 55.26C24.25 54.75 25.28 54.21 26.32 53.65C26.71 55.47 27.87 60.39 29.34 62.84C27.88 63.13 26.48 63.36 25.18 63.54ZM22.19 55.81C22.44 57.49 23.12 61.7 23.99 63.69C22.96 63.81 22 63.9 21.13 63.96C20.38 61.78 19.77 59.51 19.27 57.26C20.19 56.81 21.17 56.32 22.19 55.81ZM36.51 62.07C37.48 61.73 38.46 61.36 39.43 60.94C40.18 61.85 43.74 65.98 47.82 68.03C47.17 68.26 46.52 68.46 45.85 68.65C42.09 67.54 39 65.36 36.51 62.07ZM35.81 61.1C35.36 60.44 34.94 59.75 34.53 59.01C38.52 57.28 43.45 53.72 45.98 51.79C46.37 52.98 46.75 54.08 47.17 55.11C43.72 57.86 39.74 59.77 35.81 61.1ZM33.99 58C33.51 57.04 33.06 56.03 32.65 54.99C36.31 53.1 41.94 49.14 44.6 47.21C44.95 48.42 45.28 49.56 45.61 50.63C43.21 52.47 38.02 56.28 33.99 58ZM32.25 53.91C31.89 52.91 31.55 51.89 31.25 50.85C35.91 48.09 40.35 45.02 43.15 42.08C43.43 43.06 43.69 43.99 43.94 44.88C44.05 45.27 44.16 45.66 44.27 46.03C41.83 47.81 35.97 51.97 32.25 53.91ZM19.66 9.41C19.78 9.38 22.64 8.81 26.4 10.75C27.64 11.39 28.83 12.23 29.96 13.26C28.94 13.93 27.97 14.62 27.03 15.33C25.12 12.79 19.99 11.21 17.61 10.6C18.14 10.21 18.69 9.83 19.25 9.47C19.38 9.46 19.52 9.44 19.66 9.41ZM13.54 59.95C13.54 59.95 13.54 59.94 13.54 59.95C14.62 59.47 16.25 58.72 18.22 57.77C18.7 59.88 19.27 62 19.95 64.04C19.4 64.07 18.9 64.09 18.46 64.1C16.69 62.88 15.04 61.48 13.54 59.95ZM36.38 69.85C38.68 68.97 40.98 68.03 41.01 68.02C41.1 67.99 41.17 67.93 41.22 67.87C42.03 68.36 42.89 68.79 43.81 69.15C41.62 69.61 39.34 69.86 37.01 69.86C36.8 69.86 36.59 69.86 36.38 69.85ZM58.2 62.09C58.09 62.01 57.98 61.94 57.85 61.88C51.7 59.05 50.45 54.62 47.42 43.91C46.6 40.99 45.64 37.6 44.42 33.69C53.59 37.82 59.48 42.94 61.53 48.62C63.57 54.25 61.25 58.56 61.14 58.75C61.01 58.99 60.93 59.24 60.92 59.5C60.06 60.42 59.15 61.28 58.2 62.09Z" fill="#F4F4F5"/>
<path d="M66.41 25.3C69.0886 25.3 71.26 23.1286 71.26 20.45C71.26 17.7714 69.0886 15.6 66.41 15.6C63.7314 15.6 61.56 17.7714 61.56 20.45C61.56 23.1286 63.7314 25.3 66.41 25.3Z" fill="#F4F4F5"/>
<path d="M66.41 16.82C68.41 16.82 70.05 18.45 70.05 20.46C70.05 22.46 68.42 24.1 66.41 24.1C64.4 24.1 62.77 22.47 62.77 20.46C62.77 18.45 64.4 16.82 66.41 16.82ZM66.41 15.6C63.73 15.6 61.56 17.77 61.56 20.45C61.56 23.13 63.73 25.3 66.41 25.3C69.09 25.3 71.26 23.13 71.26 20.45C71.25 17.78 69.08 15.6 66.41 15.6Z" fill="#F4F4F5"/>
</svg>
