<svg width="200" height="200" viewBox="0 0 200 200" fill="none" xmlns="http://www.w3.org/2000/svg">
<path d="M45 167V65.5429C45 56.6095 48.1828 48.9524 54.5484 42.5714C60.914 36.1905 68.5925 33 77.5839 33C86.8936 33 94.572 36.1107 100.619 42.3321C106.985 36.1107 114.624 33 123.535 33C133.084 33 140.842 36.1107 146.81 42.3321C152.857 48.6333 155.92 56.4101 156 65.6625V158.625L136.903 167L137.023 66.1411C137.023 62.153 135.71 58.7631 133.084 55.9714C130.458 53.1798 127.355 51.7839 123.774 51.7839C120.034 51.7839 116.852 53.1798 114.226 55.9714C111.52 58.8429 110.168 62.1929 110.168 66.0214V66.1411L110.048 158.625L90.9516 167L91.071 66.1411C91.071 62.153 89.7581 58.7631 87.1323 55.9714C84.5065 53.1798 81.4032 51.7839 77.8226 51.7839C74.1624 51.7839 70.9796 53.1798 68.2742 55.9714C65.5688 58.7631 64.2161 62.153 64.2161 66.1411L64.0968 158.625L45 167Z" fill="black"/>
</svg>
