<svg width="200" height="200" viewBox="0 0 200 200" fill="none" xmlns="http://www.w3.org/2000/svg">
<circle cx="100" cy="100" r="100" fill="white" fill-opacity="0.25"/>
<path d="M73 133.172V83.0703C73 78.6589 74.5755 74.8776 77.7266 71.7266C80.8776 68.5755 84.6785 67 89.1294 67C93.7378 67 97.5387 68.5361 100.532 71.6084C103.683 68.5361 107.465 67 111.876 67C116.603 67 120.443 68.5361 123.397 71.6084C126.39 74.7201 127.907 78.5604 127.946 83.1294V129.036L118.493 133.172L118.552 83.3657C118.552 81.3963 117.902 79.7223 116.603 78.3438C115.303 76.9652 113.767 76.2759 111.994 76.2759C110.143 76.2759 108.567 76.9652 107.268 78.3438C105.928 79.7617 105.259 81.416 105.259 83.3066V83.3657L105.2 129.036L95.7466 133.172L95.8057 83.3657C95.8057 81.3963 95.1558 79.7223 93.856 78.3438C92.5562 76.9652 91.02 76.2759 89.2476 76.2759C87.4357 76.2759 85.8602 76.9652 84.521 78.3438C83.1818 79.7223 82.5122 81.3963 82.5122 83.3657L82.4531 129.036L73 133.172Z" fill="white"/>
</svg>
